# xmcd
#
# Track frame offsets:
#	150
#	16481
#	35742
#	52727
#	73195
#	89465
#	107715
#	123324
#	141944
#	159065
#
# Disc length: 2327 seconds
#
# Revision: 1
# Processed by: cddbd v1.5.2PL0 Copyright (c) Steve Scherf et al.
# Submitted via: audiograbber 1.83.01
#
DISCID=8109150a
DTITLE=City Fritter - From The Ocean To The Desert City Fritter
DYEAR=2006
DGENRE=Country
TTITLE0=See You
TTITLE1=It Took So Long
TTITLE2=Traveling Moon
TTITLE3=Standing By The Door
TTITLE4=Tawdry Motel
TTITLE5=Before Too Long
TTITLE6=Don´t You Know
TTITLE7=Not Your Girlfriend Anymore
TTITLE8=Everything´s Right Here
TTITLE9=I Know What To Bring
EXTD=
EXTT0=
EXTT1=
EXTT2=
EXTT3=
EXTT4=
EXTT5=
EXTT6=
EXTT7=
EXTT8=
EXTT9=
PLAYORDER=
